<mxfile host="app.diagrams.net" modified="2023-08-22T05:24:53.718Z" agent="Mozilla/5.0 (Macintosh; Intel Mac OS X 10_15_7) AppleWebKit/605.1.15 (KHTML, like Gecko) Version/16.5.2 Safari/605.1.15" etag="JS4dQA7XMN_6MX-GwkKh" version="21.6.8" type="github">
  <diagram name="Page-1" id="4p1Ymj7T8Ep1f70cm9m9">
    <mxGraphModel dx="1389" dy="1774" grid="1" gridSize="10" guides="1" tooltips="1" connect="1" arrows="1" fold="1" page="1" pageScale="1" pageWidth="900" pageHeight="1600" math="0" shadow="0">
      <root>
        <mxCell id="0" />
        <mxCell id="1" parent="0" />
        <mxCell id="JcZlQKITli1iKZEDEi02-3" value="&lt;font style=&quot;font-size: 19px;&quot;&gt;Tweet Event&lt;/font&gt;" style="edgeStyle=orthogonalEdgeStyle;rounded=0;orthogonalLoop=1;jettySize=auto;html=1;exitX=1;exitY=0.5;exitDx=0;exitDy=0;entryX=0;entryY=0.5;entryDx=0;entryDy=0;" edge="1" parent="1" source="JcZlQKITli1iKZEDEi02-1" target="JcZlQKITli1iKZEDEi02-4">
          <mxGeometry relative="1" as="geometry">
            <mxPoint x="300" y="425" as="targetPoint" />
          </mxGeometry>
        </mxCell>
        <mxCell id="JcZlQKITli1iKZEDEi02-1" value="" style="image;aspect=fixed;perimeter=ellipsePerimeter;html=1;align=center;shadow=0;dashed=0;spacingTop=3;image=img/lib/active_directory/cell_phone.svg;" vertex="1" parent="1">
          <mxGeometry x="60" y="370" width="46.2" height="110" as="geometry" />
        </mxCell>
        <mxCell id="JcZlQKITli1iKZEDEi02-7" style="edgeStyle=orthogonalEdgeStyle;rounded=0;orthogonalLoop=1;jettySize=auto;html=1;exitX=1;exitY=0.5;exitDx=0;exitDy=0;entryX=0;entryY=0.5;entryDx=0;entryDy=0;" edge="1" parent="1" source="JcZlQKITli1iKZEDEi02-4" target="JcZlQKITli1iKZEDEi02-8">
          <mxGeometry relative="1" as="geometry">
            <mxPoint x="527.0337400000001" y="425.4850000000001" as="targetPoint" />
          </mxGeometry>
        </mxCell>
        <mxCell id="JcZlQKITli1iKZEDEi02-4" value="Event Store" style="shape=datastore;whiteSpace=wrap;html=1;fillColor=#dae8fc;strokeColor=#6c8ebf;" vertex="1" parent="1">
          <mxGeometry x="320" y="375" width="90" height="100" as="geometry" />
        </mxCell>
        <mxCell id="JcZlQKITli1iKZEDEi02-5" value="Event (time-&#xa;based)" style="sketch=0;outlineConnect=0;strokeColor=#82b366;fillColor=#d5e8d4;dashed=0;verticalLabelPosition=bottom;verticalAlign=top;align=center;html=1;fontSize=12;fontStyle=0;aspect=fixed;shape=mxgraph.aws4.resourceIcon;resIcon=mxgraph.aws4.event_time_based;" vertex="1" parent="1">
          <mxGeometry x="170" y="235" width="140" height="140" as="geometry" />
        </mxCell>
        <mxCell id="JcZlQKITli1iKZEDEi02-10" style="edgeStyle=orthogonalEdgeStyle;rounded=0;orthogonalLoop=1;jettySize=auto;html=1;exitX=1;exitY=0.5;exitDx=0;exitDy=0;" edge="1" parent="1" source="JcZlQKITli1iKZEDEi02-8" target="JcZlQKITli1iKZEDEi02-9">
          <mxGeometry relative="1" as="geometry" />
        </mxCell>
        <mxCell id="JcZlQKITli1iKZEDEi02-8" value="&lt;font color=&quot;#000000&quot;&gt;Streaming Compute&lt;/font&gt;" style="image;aspect=fixed;perimeter=ellipsePerimeter;html=1;align=center;shadow=0;dashed=0;fontColor=#4277BB;labelBackgroundColor=default;fontSize=12;spacingTop=3;image=img/lib/ibm/analytics/streaming_computing.svg;" vertex="1" parent="1">
          <mxGeometry x="510" y="377.5" width="95" height="95" as="geometry" />
        </mxCell>
        <mxCell id="JcZlQKITli1iKZEDEi02-9" value="Streaming Sink" style="sketch=0;outlineConnect=0;fontColor=#232F3E;gradientColor=none;fillColor=#4D27AA;strokeColor=none;dashed=0;verticalLabelPosition=bottom;verticalAlign=top;align=center;html=1;fontSize=12;fontStyle=0;aspect=fixed;pointerEvents=1;shape=mxgraph.aws4.redshift_streaming_ingestion;" vertex="1" parent="1">
          <mxGeometry x="720" y="367" width="105.57" height="115.99" as="geometry" />
        </mxCell>
        <mxCell id="JcZlQKITli1iKZEDEi02-11" value="" style="sketch=0;pointerEvents=1;shadow=0;dashed=0;html=1;strokeColor=none;fillColor=#434445;aspect=fixed;labelPosition=center;verticalLabelPosition=bottom;verticalAlign=top;align=center;outlineConnect=0;shape=mxgraph.vvd.nsx_dashboard;" vertex="1" parent="1">
          <mxGeometry x="720" y="610" width="82.26" height="76.5" as="geometry" />
        </mxCell>
        <mxCell id="JcZlQKITli1iKZEDEi02-12" value="" style="shape=flexArrow;endArrow=classic;html=1;rounded=0;" edge="1" parent="1" target="JcZlQKITli1iKZEDEi02-11">
          <mxGeometry width="50" height="50" relative="1" as="geometry">
            <mxPoint x="760" y="530" as="sourcePoint" />
            <mxPoint x="880" y="500" as="targetPoint" />
          </mxGeometry>
        </mxCell>
      </root>
    </mxGraphModel>
  </diagram>
</mxfile>
